# xmcd
# 
# Track frame offsets:
#     182
#     20012
#     32075
#     46835
#     52452
#     57802
#     61000
#     78537
#     85762
#     96090
#     105835
#     115242
#     120080
#     124465
#     131095
#     134397
#     141087
#     155402
#     160100
#     165077
#     167802
#     176092
#     179482
#     182680
#     195717
#     202772
#     207002
#     212755
#     219782
#     222182
#     223937
#     227570
#     230657
#     241112
#     244827
#     247155
#     254715
#     260782
#     264390
#     267277
#     275830
#     279787
#     287757
#     296572
#     308517
# 
# Disc length: 4188
# 
# Revision: 11
# Processed by: cddbd v1.5.2PL0 Copyright (c) Steve Scherf et al.
# Submitted via: fre:ac v1.0.31
# 
DISCID=9c105a2d
DTITLE=Original Soundtrack - Doctor Zhivago
DYEAR=1995
DGENRE=Soundtrack
TTITLE0=Overture
TTITLE1=Main Title
TTITLE2=Kontakion - Funeral Song
TTITLE3=Lara Is Charming
TTITLE4=The Internationale
TTITLE5=Lara And Komarovsky Dancing Up A Storm
TTITLE6=Komarovsky With Lara In The Hotel
TTITLE7=Interior Student Cafe (Outtake)
TTITLE8=Sventitsky's Waltz - After The Shooting
TTITLE9=Military Parade
TTITLE10=They Began To Go Home
TTITLE11=After Deserters Killed The Colonel
TTITLE12=At The Hospital
TTITLE13=Lara Says Goodbye To Yuri
TTITLE14=Tonya Greets Yuri (Outtake)
TTITLE15=The Stove's Out (Outtake)
TTITLE16=Yevgraf Snaps His Fingers (Outtake)
TTITLE17=Evening Bells - Moscow Station
TTITLE18=Flags Flying Over The Train (Outtake)
TTITLE19=Yuri Gazing Through A Tiny Open Hatch (Outtake)
TTITLE20=The Door Is Banged Opened (Outtake)
TTITLE21=Intermission
TTITLE22=Yuri Follows The Sound Of The Waterfall
TTITLE23=Tonya And Yuri Arrive At Varykino
TTITLE24=They Didn't Lock The Cottage
TTITLE25=Varykino Cottage, Winter Snow
TTITLE26=Yuri And The Daffodils
TTITLE27=On A Yuriatin Street
TTITLE28=In Lara's Bedroom
TTITLE29=Yuri Rides To Yuriatin
TTITLE30=Yuri Is Taken Prisoner By The Red Partisans
TTITLE31=For As Long As We Need You
TTITLE32=Yuri Is Escaping
TTITLE33=Yuri Approaches Lara's Apartment
TTITLE34=Yuri Looks Into The Mirror
TTITLE35=Lara And Yuri Arriving At Varykino
TTITLE36=Yuri Is Trying To Write
TTITLE37=Yuri Frightens The Wolves Away, Part I
TTITLE38=Lara Reads Her Poem
TTITLE39=Yuri Frightens The Wolves Away, Part II
TTITLE40=Yuri Works On (Outtake)
TTITLE41=Then It's A Gift (End Title)
TTITLE42=Lara's Theme (Jazz Version)
TTITLE43=Lara's Theme (Rock 'N' Roll Version)
TTITLE44=Lara's Theme (Swing Version)
EXTD=YEAR: 1965
EXTT0=
EXTT1=
EXTT2=
EXTT3=
EXTT4=
EXTT5=
EXTT6=
EXTT7=
EXTT8=
EXTT9=
EXTT10=
EXTT11=
EXTT12=
EXTT13=
EXTT14=
EXTT15=
EXTT16=
EXTT17=
EXTT18=
EXTT19=
EXTT20=
EXTT21=
EXTT22=
EXTT23=
EXTT24=
EXTT25=
EXTT26=
EXTT27=
EXTT28=
EXTT29=
EXTT30=
EXTT31=
EXTT32=
EXTT33=
EXTT34=
EXTT35=
EXTT36=
EXTT37=
EXTT38=
EXTT39=
EXTT40=
EXTT41=
EXTT42=
EXTT43=
EXTT44=
PLAYORDER=
